<?xml version="1.0" encoding="UTF-8" standalone="no"?>
<svg
   xmlns:dc="http://purl.org/dc/elements/1.1/"
   xmlns:cc="http://creativecommons.org/ns#"
   xmlns:rdf="http://www.w3.org/1999/02/22-rdf-syntax-ns#"
   xmlns:svg="http://www.w3.org/2000/svg"
   xmlns="http://www.w3.org/2000/svg"
   xmlns:sodipodi="http://sodipodi.sourceforge.net/DTD/sodipodi-0.dtd"
   xmlns:inkscape="http://www.inkscape.org/namespaces/inkscape"
   version="1.1"
   viewBox="0 0 126.24997 22.59375"
   fill="none"
   stroke="none"
   stroke-linecap="square"
   stroke-miterlimit="10"
   id="svg1014"
   sodipodi:docname="lince.svg"
   width="126.24997"
   height="22.59375"
   inkscape:version="1.0beta1 (76ce730, 2019-10-19)">
  <metadata
     id="metadata1020">
    <rdf:RDF>
      <cc:Work
         rdf:about="">
        <dc:format>image/svg+xml</dc:format>
        <dc:type
           rdf:resource="http://purl.org/dc/dcmitype/StillImage" />
        <dc:title />
      </cc:Work>
    </rdf:RDF>
  </metadata>
  <defs
     id="defs1018">
    <defs
       id="defs855">
      <filter
         filterUnits="userSpaceOnUse"
         id="shadowFilter-g5ff1cd248d_0_0.1">
        <feGaussianBlur
           id="feGaussianBlur842"
           result="blur"
           stdDeviation="6.0"
           in="SourceAlpha" />
        <feComponentTransfer
           id="feComponentTransfer852"
           color-interpolation-filters="sRGB"
           in="blur">
          <feFuncR
             id="feFuncR844"
             intercept="0.0"
             slope="0"
             type="linear" />
          <feFuncG
             id="feFuncG846"
             intercept="0.0"
             slope="0"
             type="linear" />
          <feFuncB
             id="feFuncB848"
             intercept="0.0"
             slope="0"
             type="linear" />
          <feFuncA
             id="feFuncA850"
             intercept="0"
             slope="0.5"
             type="linear" />
        </feComponentTransfer>
      </filter>
    </defs>
    <defs
       id="defs879">
      <filter
         filterUnits="userSpaceOnUse"
         id="shadowFilter-g5ff1cd248d_0_0.2">
        <feGaussianBlur
           id="feGaussianBlur866"
           result="blur"
           stdDeviation="6.0"
           in="SourceAlpha" />
        <feComponentTransfer
           id="feComponentTransfer876"
           color-interpolation-filters="sRGB"
           in="blur">
          <feFuncR
             id="feFuncR868"
             intercept="0.0"
             slope="0"
             type="linear" />
          <feFuncG
             id="feFuncG870"
             intercept="0.0"
             slope="0"
             type="linear" />
          <feFuncB
             id="feFuncB872"
             intercept="0.0"
             slope="0"
             type="linear" />
          <feFuncA
             id="feFuncA874"
             intercept="0"
             slope="0.5"
             type="linear" />
        </feComponentTransfer>
      </filter>
    </defs>
    <defs
       id="defs905">
      <filter
         filterUnits="userSpaceOnUse"
         id="shadowFilter-g5ff1cd248d_0_0.3">
        <feGaussianBlur
           id="feGaussianBlur892"
           result="blur"
           stdDeviation="6.0"
           in="SourceAlpha" />
        <feComponentTransfer
           id="feComponentTransfer902"
           color-interpolation-filters="sRGB"
           in="blur">
          <feFuncR
             id="feFuncR894"
             intercept="0.0"
             slope="0"
             type="linear" />
          <feFuncG
             id="feFuncG896"
             intercept="0.0"
             slope="0"
             type="linear" />
          <feFuncB
             id="feFuncB898"
             intercept="0.0"
             slope="0"
             type="linear" />
          <feFuncA
             id="feFuncA900"
             intercept="0"
             slope="0.5"
             type="linear" />
        </feComponentTransfer>
      </filter>
    </defs>
    <defs
       id="defs931">
      <filter
         filterUnits="userSpaceOnUse"
         id="shadowFilter-g5ff1cd248d_0_0.4">
        <feGaussianBlur
           id="feGaussianBlur918"
           result="blur"
           stdDeviation="6.0"
           in="SourceAlpha" />
        <feComponentTransfer
           id="feComponentTransfer928"
           color-interpolation-filters="sRGB"
           in="blur">
          <feFuncR
             id="feFuncR920"
             intercept="0.0"
             slope="0"
             type="linear" />
          <feFuncG
             id="feFuncG922"
             intercept="0.0"
             slope="0"
             type="linear" />
          <feFuncB
             id="feFuncB924"
             intercept="0.0"
             slope="0"
             type="linear" />
          <feFuncA
             id="feFuncA926"
             intercept="0"
             slope="0.5"
             type="linear" />
        </feComponentTransfer>
      </filter>
    </defs>
  </defs>
  <sodipodi:namedview
     pagecolor="#ffffff"
     bordercolor="#666666"
     inkscape:document-rotation="0"
     borderopacity="1"
     objecttolerance="10"
     gridtolerance="10"
     guidetolerance="10"
     inkscape:pageopacity="0"
     inkscape:pageshadow="2"
     inkscape:window-width="1440"
     inkscape:window-height="805"
     id="namedview1016"
     showgrid="false"
     fit-margin-top="0"
     fit-margin-left="0"
     fit-margin-right="0"
     fit-margin-bottom="0"
     inkscape:zoom="1.9272516"
     inkscape:cx="107.16905"
     inkscape:cy="64.581341"
     inkscape:window-x="0"
     inkscape:window-y="23"
     inkscape:window-maximized="0"
     inkscape:current-layer="svg1014" />
  <clipPath
     id="g5ff1cd248d_0_0.0">
    <path
       d="M 0,0 H 960 V 540 H 0 Z"
       clip-rule="nonzero"
       id="path833"
       inkscape:connector-curvature="0" />
  </clipPath>
  <path
     style="opacity:1;stop-opacity:1;fill:#ffffff;fill-opacity:1"
     inkscape:connector-curvature="0"
     id="path960"
     fill-rule="nonzero"
     d="M 0,22.01563 V 0.54688 H 5.79687 V 17.3125 h 15.67188 v 4.70313 z m 26.10937,0 V 0.54688 h 5.79688 v 21.46875 z m 32.96875,0 V 9.98438 Q 59.07812,8.78125 58.875,7.8125 58.67187,6.82813 58.10937,6.14063 57.5625,5.4375 56.5625,5.0625 55.57812,4.67188 54.01562,4.67188 q -1.1875,0 -2.5,0.32812 Q 50.21875,5.3125 48.9375,5.84375 47.65625,6.375 46.48437,7.07813 45.32812,7.78125 44.42187,8.54688 V 22.01563 H 38.625 V 0.54688 h 5.79687 v 2.9375 Q 45.51562,2.85938 46.75,2.25 47.98437,1.625 49.375,1.125 50.76562,0.625 52.32812,0.3125 53.89062,0 55.625,0 q 2.17187,0 3.875,0.53125 1.71875,0.51563 2.90625,1.48438 1.1875,0.95312 1.8125,2.32812 0.64062,1.35938 0.64062,3.04688 v 14.625 z m 36.0625,-1.46875 q -1.125,0.46875 -2.26562,0.84375 -1.14063,0.375 -2.35938,0.64062 -1.21875,0.28125 -2.57812,0.42188 -1.34375,0.14062 -2.89063,0.14062 -3.28125,0 -6.04687,-0.70312 -2.75,-0.70313 -4.75,-2.10938 -1.98438,-1.42187 -3.09375,-3.53125 -1.10938,-2.125 -1.10938,-4.95312 0,-2.82813 1.10938,-4.9375 1.10937,-2.125 3.09375,-3.53125 2,-1.42188 4.75,-2.125 Q 81.76562,0 85.04687,0 q 1.54688,0 2.89063,0.14063 1.35937,0.14062 2.57812,0.42187 1.21875,0.26563 2.35938,0.64063 1.14062,0.375 2.26562,0.84375 V 7.26563 Q 94.25,6.78125 93.26562,6.3125 92.28125,5.82813 91.09375,5.45313 q -1.1875,-0.39063 -2.60938,-0.625 -1.42187,-0.25 -3.20312,-0.25 -2.73438,0 -4.54688,0.5625 -1.79687,0.5625 -2.875,1.5 -1.07812,0.9375 -1.51562,2.15625 -0.4375,1.20312 -0.4375,2.5 0,0.85937 0.1875,1.70312 0.1875,0.82813 0.625,1.57813 0.4375,0.73437 1.14062,1.35937 0.70313,0.625 1.75,1.07813 1.04688,0.45312 2.4375,0.71875 1.40625,0.25 3.23438,0.25 1.78125,0 3.20312,-0.21875 1.42188,-0.23438 2.60938,-0.60938 1.1875,-0.375 2.17187,-0.84375 0.98438,-0.48437 1.875,-0.98437 z m 29.34372,0.40625 q -2.64062,0.875 -5.28125,1.25 -2.625,0.39062 -5.375,0.39062 -3.51562,0 -6.26562,-0.75 -2.73438,-0.76562 -4.60938,-2.20312 -1.875,-1.4375 -2.85934,-3.51563 -0.98437,-2.07812 -0.98437,-4.70312 0,-2.4375 0.98437,-4.51563 0.99997,-2.09375 2.81247,-3.625 1.82812,-1.54687 4.40625,-2.40625 2.57812,-0.875 5.75,-0.875 2.92187,0 5.34375,0.79688 2.4375,0.78125 4.17187,2.32812 1.75,1.54688 2.70313,3.8125 0.96875,2.26563 0.96875,5.21875 v 1.4375 h -21.15625 q 0.28125,1.01563 0.92187,1.85938 0.65625,0.84375 1.76563,1.4375 1.10937,0.59375 2.71875,0.92187 1.625,0.32813 3.875,0.32813 1.59375,0 3.125,-0.1875 1.53125,-0.20313 2.85937,-0.51563 1.32813,-0.32812 2.39063,-0.71875 1.07812,-0.39062 1.73437,-0.78125 z m -4,-11.60938 q -0.0781,-0.79687 -0.48437,-1.64062 -0.39063,-0.85938 -1.25,-1.54688 -0.85938,-0.6875 -2.25,-1.125 -1.39063,-0.45312 -3.46875,-0.45312 -1.95313,0 -3.375,0.48437 -1.42188,0.48438 -2.39063,1.20313 -0.95312,0.71875 -1.48437,1.54687 -0.53125,0.82813 -0.6875,1.53125 z"
     fill="#e66400" />
</svg>
